<?xml version="1.0" encoding="utf-8"?>
<!-- Generator: Adobe Illustrator 16.0.0, SVG Export Plug-In . SVG Version: 6.00 Build 0)  -->
<!DOCTYPE svg PUBLIC "-//W3C//DTD SVG 1.1//EN" "http://www.w3.org/Graphics/SVG/1.1/DTD/svg11.dtd">
<svg version="1.1" id="Layer_1" xmlns="http://www.w3.org/2000/svg" xmlns:xlink="http://www.w3.org/1999/xlink" x="0px" y="0px"
	 width="100px" height="100px" viewBox="0 0 100 100" enable-background="new 0 0 100 100" xml:space="preserve">
<g>
	<path d="M100,12.499v8.333c0,1.129-0.415,2.106-1.236,2.931C97.938,24.588,96.959,25,95.831,25H4.167
		c-1.13,0-2.105-0.412-2.931-1.236C0.413,22.938,0,21.962,0,20.833v-8.333c0-1.128,0.413-2.104,1.236-2.929
		c0.826-0.823,1.8-1.236,2.931-1.236h91.664c1.128,0,2.107,0.413,2.933,1.236C99.585,10.396,100,11.371,100,12.499z M100,45.833
		v8.333c0,1.131-0.415,2.105-1.236,2.931c-0.825,0.823-1.805,1.236-2.933,1.236H4.167c-1.13,0-2.105-0.413-2.931-1.236
		C0.413,56.271,0,55.297,0,54.166v-8.333c0-1.128,0.413-2.105,1.236-2.929c0.826-0.825,1.8-1.238,2.931-1.238h91.664
		c1.128,0,2.107,0.413,2.933,1.238C99.585,43.728,100,44.705,100,45.833z M100,79.164v8.334c0,1.13-0.415,2.106-1.236,2.931
		c-0.825,0.825-1.805,1.238-2.933,1.238H4.167c-1.13,0-2.105-0.413-2.931-1.238C0.413,89.604,0,88.628,0,87.498v-8.334
		c0-1.128,0.413-2.103,1.236-2.928C2.062,75.41,3.037,75,4.167,75h91.664c1.128,0,2.107,0.41,2.933,1.236
		C99.585,77.062,100,78.036,100,79.164z"/>
</g>
</svg>
